<svg id="SvgjsSvg1001" width="288" height="288" xmlns="http://www.w3.org/2000/svg" version="1.1" xmlns:xlink="http://www.w3.org/1999/xlink" xmlns:svgjs="http://svgjs.com/svgjs"><defs id="SvgjsDefs1002"></defs><g id="SvgjsG1008" transform="matrix(0.9167,0,0,0.9167,11.995015647822044,11.995425270438659)"><svg xmlns="http://www.w3.org/2000/svg" width="288" height="288" viewBox="0 0 26 26"><g fill="#ffffff" transform="translate(5 -1031.362)" class="colorfff svgShape"><circle cx="37.045" cy="28.409" r="12.5" fill="#ffffff" fill-rule="evenodd" transform="matrix(1.04 0 0 1.04 -30.527 1014.817)" class="coloref4c45 svgShape"></circle><path d="m 3.2931479,1039.2039 a 0.46880165,0.46879989 0 0 0 -0.4523357,0.4688 l 0,10.3122 a 0.46880165,0.46879989 0 0 0 0.7599973,0.3699 c 2.1875478,-1.7188 4.3759043,-3.4381 6.5634465,-5.157 a 0.46880165,0.46879989 0 0 0 0,-0.7362 l -6.5634465,-5.1569 a 0.46880165,0.46879989 0 0 0 -0.3076616,-0.1008 z m 0.4852995,1.434 5.3364631,4.1918 c -1.7785655,1.3976 -3.5578655,2.7945 -5.3364631,4.1919 l 0,-8.3837 z" color="#000" font-family="sans-serif" font-weight="400" overflow="visible" transform="translate(1.97 -69.864) scale(1.06642)" style="line-height:normal;text-indent:0;text-align:start;text-decoration-line:none;text-decoration-style:solid;text-decoration-color:#000;text-transform:none;block-progression:tb;isolation:auto;mix-blend-mode:normal;marker:none" fill="#000000" class="color000 svgShape"></path></g></svg></g></svg>